<svg xmlns="http://www.w3.org/2000/svg" version="1.1" xmlns:xlink="http://www.w3.org/1999/xlink" viewBox="0 0 200 200"><rect width="200" height="200" fill="url('#gradient')"></rect><defs><linearGradient id="gradient" gradientTransform="rotate(45 0.5 0.5)"><stop offset="0%" stop-color="#a56548"></stop><stop offset="100%" stop-color="#0e0d0b"></stop></linearGradient></defs><g><g fill="#c697e6" transform="matrix(2.3483246273410625,0,0,2.3483246273410625,7.772088230696582,113.08819731689134)" stroke="#832018" stroke-width="0.2"><path d="M10.73-5.36L10.73-5.21Q10.73-2.74 9.62-1.27Q8.52 0.20 6.63 0.20L6.63 0.20Q5.18 0.20 4.24-0.87L4.24-0.87L4.24 4.06L0.95 4.06L0.95-10.57L4.02-10.57L4.12-9.59Q5.07-10.76 6.61-10.76L6.61-10.76Q8.56-10.76 9.65-9.32Q10.73-7.88 10.73-5.36L10.73-5.36ZM7.44-5.06L7.44-5.41Q7.44-8.22 5.80-8.22L5.80-8.22Q4.63-8.22 4.24-7.38L4.24-7.38L4.24-3.22Q4.67-2.34 5.82-2.34L5.82-2.34Q7.39-2.34 7.44-5.06L7.44-5.06ZM11.78-4.82L11.77-5.38Q11.77-6.96 12.38-8.20Q13.00-9.43 14.15-10.10Q15.30-10.76 16.86-10.76L16.86-10.76Q19.23-10.76 20.60-9.29Q21.96-7.82 21.96-5.29L21.96-5.29L21.96-5.18Q21.96-2.71 20.59-1.25Q19.22 0.20 16.88 0.20L16.88 0.20Q14.62 0.20 13.25-1.16Q11.88-2.51 11.78-4.82L11.78-4.82ZM15.07-5.77L15.06-5.18Q15.06-3.71 15.52-3.03Q15.98-2.34 16.88-2.34L16.88-2.34Q18.63-2.34 18.67-5.05L18.67-5.05L18.67-5.38Q18.67-8.22 16.86-8.22L16.86-8.22Q15.21-8.22 15.07-5.77L15.07-5.77ZM29.86-10.64L29.80-7.59L28.72-7.67Q27.17-7.67 26.73-6.69L26.73-6.69L26.73 0L23.44 0L23.44-10.57L26.52-10.57L26.63-9.21Q27.46-10.76 28.95-10.76L28.95-10.76Q29.47-10.76 29.86-10.64L29.86-10.64ZM32.02-13.19L35.31-13.19L35.31-10.57L37.05-10.57L37.05-8.28L35.31-8.28L35.31-3.45Q35.31-2.85 35.53-2.62Q35.74-2.38 36.38-2.38L36.38-2.38Q36.87-2.38 37.20-2.44L37.20-2.44L37.20-0.09Q36.31 0.20 35.34 0.20L35.34 0.20Q33.64 0.20 32.83-0.61Q32.02-1.41 32.02-3.04L32.02-3.04L32.02-8.28L30.67-8.28L30.67-10.57L32.02-10.57L32.02-13.19ZM42.37 0L39.07 0L39.07-8.28L37.54-8.28L37.54-10.57L39.07-10.57L39.07-11.41Q39.07-13.21 40.14-14.21Q41.20-15.21 43.13-15.21L43.13-15.21Q43.83-15.21 44.67-15L44.67-15L44.68-12.58Q44.38-12.67 43.87-12.67L43.87-12.67Q42.37-12.67 42.37-11.38L42.37-11.38L42.37-10.57L44.43-10.57L44.43-8.28L42.37-8.28L42.37 0ZM45.19-4.82L45.18-5.38Q45.18-6.96 45.79-8.20Q46.41-9.43 47.56-10.10Q48.71-10.76 50.26-10.76L50.26-10.76Q52.64-10.76 54.00-9.29Q55.37-7.82 55.37-5.29L55.37-5.29L55.37-5.18Q55.37-2.71 54.00-1.25Q52.63 0.20 50.28 0.20L50.28 0.20Q48.03 0.20 46.66-1.16Q45.29-2.51 45.19-4.82L45.19-4.82ZM48.48-5.77L48.47-5.18Q48.47-3.71 48.93-3.03Q49.38-2.34 50.28-2.34L50.28-2.34Q52.04-2.34 52.08-5.05L52.08-5.05L52.08-5.38Q52.08-8.22 50.26-8.22L50.26-8.22Q48.61-8.22 48.48-5.77L48.48-5.77ZM60.29-15L60.29 0L56.99 0L56.99-15L60.29-15ZM65.79-10.57L65.79 0L62.49 0L62.49-10.57L65.79-10.57ZM62.29-13.29L62.29-13.29Q62.29-13.99 62.80-14.44Q63.31-14.89 64.12-14.89Q64.93-14.89 65.44-14.44Q65.95-13.99 65.95-13.29Q65.95-12.59 65.44-12.14Q64.93-11.69 64.12-11.69Q63.31-11.69 62.80-12.14Q62.29-12.59 62.29-13.29ZM67.41-4.82L67.40-5.38Q67.40-6.96 68.02-8.20Q68.63-9.43 69.79-10.10Q70.94-10.76 72.49-10.76L72.49-10.76Q74.86-10.76 76.23-9.29Q77.60-7.82 77.60-5.29L77.60-5.29L77.60-5.18Q77.60-2.71 76.23-1.25Q74.85 0.20 72.51 0.20L72.51 0.20Q70.25 0.20 68.89-1.16Q67.52-2.51 67.41-4.82L67.41-4.82ZM70.70-5.77L70.69-5.18Q70.69-3.71 71.15-3.03Q71.61-2.34 72.51-2.34L72.51-2.34Q74.27-2.34 74.31-5.05L74.31-5.05L74.31-5.38Q74.31-8.22 72.49-8.22L72.49-8.22Q70.84-8.22 70.70-5.77L70.70-5.77Z"></path></g></g></svg>